HIERARCHY
ROOT hip
{
  OFFSET 0 0 0
  CHANNELS 6 Xposition Yposition Zposition Zrotation Yrotation Xrotation
  JOINT abdomen
  {
    OFFSET 0 20.6881 -0.73152
    CHANNELS 3 Zrotation Xrotation Yrotation
    JOINT chest
    {
      OFFSET 0 11.7043 -0.48768
      CHANNELS 3 Zrotation Xrotation Yrotation
      JOINT neck
      {
        OFFSET 0 22.1894 -2.19456
        CHANNELS 3 Zrotation Xrotation Yrotation
        JOINT head
        {
          OFFSET -0.24384 7.07133 1.2192
          CHANNELS 3 Zrotation Xrotation Yrotation
          JOINT leftEye
          {
            OFFSET 4.14528 8.04674 8.04672
            CHANNELS 3 Zrotation Xrotation Yrotation
            End Site
            {
              OFFSET 1 0 0
            }
          }
          JOINT rightEye
          {
            OFFSET -3.6576 8.04674 8.04672
            CHANNELS 3 Zrotation Xrotation Yrotation
            End Site
            {
              OFFSET 1 0 0
            }
          }
        }
      }
      JOINT rCollar
      {
        OFFSET -2.68224 19.2634 -4.8768
        CHANNELS 3 Zrotation Xrotation Yrotation
        JOINT rShldr
        {
          OFFSET -8.77824 -1.95073 1.46304
          CHANNELS 3 Zrotation Xrotation Yrotation
          JOINT rForeArm
          {
            OFFSET -28.1742 -1.7115 0.48768
            CHANNELS 3 Zrotation Xrotation Yrotation
            JOINT rHand
            {
              OFFSET -22.5879 0.773209 7.07136
              CHANNELS 3 Zrotation Xrotation Yrotation
              JOINT rThumb1
              {
                OFFSET -1.2192 -0.487915 3.41376
                CHANNELS 3 Zrotation Xrotation Yrotation
                JOINT rThumb2
                {
                  OFFSET -3.37035 -0.52449 3.41376
                  CHANNELS 3 Zrotation Xrotation Yrotation
                  End Site
                  {
                    OFFSET -1.78271 -1.18214 1.43049
                  }
                }
              }
              JOINT rIndex1
              {
                OFFSET -7.75947 0.938293 5.60832
                CHANNELS 3 Zrotation Xrotation Yrotation
                JOINT rIndex2
                {
                  OFFSET -2.54057 -0.884171 1.56538
                  CHANNELS 3 Zrotation Xrotation Yrotation
                  End Site
                  {
                    OFFSET -1.62519 -0.234802 1.16502
                  }
                }
              }
              JOINT rMid1
              {
                OFFSET -8.24714 1.18213 3.41376
                CHANNELS 3 Zrotation Xrotation Yrotation
                JOINT rMid2
                {
                  OFFSET -3.10165 -0.590103 1.0647
                  CHANNELS 3 Zrotation Xrotation Yrotation
                  End Site
                  {
                    OFFSET -2.48547 -0.328903 0.83742
                  }
                }
              }
              JOINT rRing1
              {
                OFFSET -8.82822 0.546677 1.51678
                CHANNELS 3 Zrotation Xrotation Yrotation
                JOINT rRing2
                {
                  OFFSET -2.60934 -0.819778 -0.0198488
                  CHANNELS 3 Zrotation Xrotation Yrotation
                  End Site
                  {
                    OFFSET -2.33842 -0.294052 0.168128
                  }
                }
              }
              JOINT rPinky1
              {
                OFFSET -8.27202 -0.0477905 -0.4584
                CHANNELS 3 Zrotation Xrotation Yrotation
                JOINT rPinky2
                {
                  OFFSET -1.82734 -0.647385 -0.700984
                  CHANNELS 3 Zrotation Xrotation Yrotation
                  End Site
                  {
                    OFFSET -1.69225 -0.51767 -0.607171
                  }
                }
              }
            }
          }
        }
      }
      JOINT lCollar
      {
        OFFSET 2.68224 19.2634 -4.8768
        CHANNELS 3 Zrotation Xrotation Yrotation
        JOINT lShldr
        {
          OFFSET 8.77824 -1.95073 1.46304
          CHANNELS 3 Zrotation Xrotation Yrotation
          JOINT lForeArm
          {
            OFFSET 28.1742 -1.7115 0.48768
            CHANNELS 3 Zrotation Xrotation Yrotation
            JOINT lHand
            {
              OFFSET 22.5879 0.773209 7.07136
              CHANNELS 3 Zrotation Xrotation Yrotation
              JOINT lThumb1
              {
                OFFSET 1.2192 -0.487915 3.41376
                CHANNELS 3 Zrotation Xrotation Yrotation
                JOINT lThumb2
                {
                  OFFSET 3.37035 -0.52449 3.41376
                  CHANNELS 3 Zrotation Xrotation Yrotation
                  End Site
                  {
                    OFFSET 1.78271 -1.18214 1.43049
                  }
                }
              }
              JOINT lIndex1
              {
                OFFSET 7.75947 0.938293 5.60832
                CHANNELS 3 Zrotation Xrotation Yrotation
                JOINT lIndex2
                {
                  OFFSET 2.54057 -0.884171 1.56538
                  CHANNELS 3 Zrotation Xrotation Yrotation
                  End Site
                  {
                    OFFSET 1.62519 -0.234802 1.16502
                  }
                }
              }
              JOINT lMid1
              {
                OFFSET 8.24714 1.18213 3.41376
                CHANNELS 3 Zrotation Xrotation Yrotation
                JOINT lMid2
                {
                  OFFSET 3.10165 -0.590103 1.0647
                  CHANNELS 3 Zrotation Xrotation Yrotation
                  End Site
                  {
                    OFFSET 2.48547 -0.328903 0.83742
                  }
                }
              }
              JOINT lRing1
              {
                OFFSET 8.82822 0.546677 1.51678
                CHANNELS 3 Zrotation Xrotation Yrotation
                JOINT lRing2
                {
                  OFFSET 2.60934 -0.819778 -0.0198488
                  CHANNELS 3 Zrotation Xrotation Yrotation
                  End Site
                  {
                    OFFSET 2.33842 -0.294052 0.168128
                  }
                }
              }
              JOINT lPinky1
              {
                OFFSET 8.27202 -0.0477905 -0.4584
                CHANNELS 3 Zrotation Xrotation Yrotation
                JOINT lPinky2
                {
                  OFFSET 1.82734 -0.647385 -0.700984
                  CHANNELS 3 Zrotation Xrotation Yrotation
                  End Site
                  {
                    OFFSET 1.69225 -0.51767 -0.607171
                  }
                }
              }
            }
          }
        }
      }
    }
  }
  JOINT rButtock
  {
    OFFSET -8.77824 4.35084 1.2192
    CHANNELS 3 Zrotation Xrotation Yrotation
    JOINT rThigh
    {
      OFFSET 0 -1.70687 -2.19456
      CHANNELS 3 Zrotation Xrotation Yrotation
      JOINT rShin
      {
        OFFSET 0 -36.8199 0.73152
        CHANNELS 3 Zrotation Xrotation Yrotation
        JOINT rFoot
        {
          OFFSET 0.73152 -45.1104 -5.12064
          CHANNELS 3 Zrotation Xrotation Yrotation
          End Site
          {
            OFFSET -1.1221 -3.69964 12.103
          }
        }
      }
    }
  }
  JOINT lButtock
  {
    OFFSET 8.77824 4.35084 1.2192
    CHANNELS 3 Zrotation Xrotation Yrotation
    JOINT lThigh
    {
      OFFSET 0 -1.70687 -2.19456
      CHANNELS 3 Zrotation Xrotation Yrotation
      JOINT lShin
      {
        OFFSET 0 -36.8199 0.73152
        CHANNELS 3 Zrotation Xrotation Yrotation
        JOINT lFoot
        {
          OFFSET -0.73152 -45.1104 -5.12064
          CHANNELS 3 Zrotation Xrotation Yrotation
          End Site
          {
            OFFSET 1.1221 -3.69964 12.103
          }
        }
      }
    }
  }
}
MOTION
Frames:	4
Frame Time:	0.03333
0.01600000075995922 54.39759826660156 0.12992000579833984 -17.291399538517 -22.43310034275055 10.991699919104576 15.752000659704208 5.336640067398548 7.451090142130852 -0.720316031947732 -5.7265303283929825 2.005269918590784 -1.6246800497174263 12.97010064125061 2.8343600034713745 3.6656899005174637 -23.73550057411194 6.458360329270363 0.0 0.0 0.0 0.0 0.0 0.0 0.0 0.0 0.0 68.4472006559372 46.924699544906616 -15.090400278568268 -28.204500675201416 -39.15369898080826 82.41720199584961 -0.0028470600955188274 0.4169019917026162 0.05871649947948754 -2.7498003873915877e-10 2.291926648467779e-09 1.0222223068012681e-09 -4.757794158649631e-10 3.962270511692623e-09 1.7713830402499298e-09 -2.7498003873915877e-10 2.291926648467779e-09 1.0222223068012681e-09 7.7309102565050125 5.474880114197731 0.41731400415301323 -2.7498003873915877e-10 2.291926648467779e-09 1.0222223068012681e-09 2.905540131032467 0.9651830233633518 0.102901995414868 -2.7498003873915877e-10 2.291926648467779e-09 1.0222223068012681e-09 10.27859978377819 0.7318009994924068 0.025912300043273717 -2.7498003873915877e-10 2.291926648467779e-09 1.0222223068012681e-09 2.221670038998127 -0.733487019315362 -0.2089200052432716 0.0 0.0 0.0 -57.6699024438858 30.776100754737854 -26.18489921092987 28.192900121212006 -39.23599988222122 -82.56380081176758 0.7070919871330261 -23.169600069522858 3.448290154337883 2.455635694786906e-10 -3.453237695794087e-10 3.504396772768814e-10 4.1950443119276315e-10 -5.755396159656812e-10 6.091127602303459e-10 2.455635694786906e-10 -3.453237695794087e-10 3.504396772768814e-10 -7.7309102565050125 5.474880114197731 -0.41731400415301323 2.455635694786906e-10 -3.453237695794087e-10 3.504396772768814e-10 -2.905540131032467 0.9651830233633518 -0.102901995414868 2.455635694786906e-10 -3.453237695794087e-10 3.504396772768814e-10 -10.27859978377819 0.7318009994924068 -0.025912300043273717 2.455635694786906e-10 -3.453237695794087e-10 3.504396772768814e-10 -2.221670038998127 -0.733487019315362 0.2089200052432716 0.0 0.0 0.0 -1.5682599507272243 3.52922011166811 -9.65213030576706 -0.12422099942341447 46.99730157852173 2.8956300392746925 -15.89039996266365 -21.129800230264664 -38.441899716854095 0.0 0.0 0.0 80.15790224075317 -58.033899664878845 74.14890110492706 5.486780069768429 79.62870240211487 -4.932779856026173 0.9959219768643379 -2.459859922528267 0.6184119964018464
0.0556000005453825 54.2781982421875 0.29928000271320343 -17.146499902009964 -22.802400290966034 11.153099834918976 15.521299839019775 5.636139884591103 7.51039981842041 -0.6833929941058159 -5.94635009765625 2.028569933027029 -1.7390299960970879 12.988500595092773 2.932400107383728 3.644910156726837 -24.189700484275818 6.674089729785919 0.0 0.0 0.0 0.0 0.0 0.0 0.0 0.0 0.0 65.95859885215759 47.12479770183563 -12.22730040550232 -28.239299654960632 -38.88519912958145 81.94510102272034 0.0030125800913083367 1.645369939506054 0.2309810067526996 -7.712230853940127e-10 5.40495648237993e-09 1.9673862539093534e-09 -1.3301360013429075e-09 9.30583610170288e-09 3.403037851512636e-09 -7.712230853940127e-10 5.40495648237993e-09 1.9673862539093534e-09 7.7309102565050125 5.474880114197731 0.41731400415301323 -7.712230853940127e-10 5.40495648237993e-09 1.9673862539093534e-09 2.905540131032467 0.9651830233633518 0.102901995414868 -7.712230853940127e-10 5.40495648237993e-09 1.9673862539093534e-09 10.27859978377819 0.7318009994924068 0.025912300043273717 -7.712230853940127e-10 5.40495648237993e-09 1.9673862539093534e-09 2.221670038998127 -0.733487019315362 -0.2089200052432716 0.0 0.0 0.0 -57.714802622795105 29.968600273132324 -25.400398671627045 28.13910037279129 -39.607700407505035 -83.21979939937592 0.7003709999844432 -23.066501319408417 3.43114010989666 8.633094239485217e-10 -1.4657075553259347e-09 6.967226795495662e-10 1.4810552784183528e-09 -2.4786572794255335e-09 1.220463730078336e-09 8.633094239485217e-10 -1.4657075553259347e-09 6.967226795495662e-10 -7.7309102565050125 5.474880114197731 -0.41731400415301323 8.633094239485217e-10 -1.4657075553259347e-09 6.967226795495662e-10 -2.905540131032467 0.9651830233633518 -0.102901995414868 8.633094239485217e-10 -1.4657075553259347e-09 6.967226795495662e-10 -10.27859978377819 0.7318009994924068 -0.025912300043273717 8.633094239485217e-10 -1.4657075553259347e-09 6.967226795495662e-10 -2.221670038998127 -0.733487019315362 0.2089200052432716 0.0 0.0 0.0 -1.842700056731701 3.3554599061608315 -9.417209699749947 -0.12473200215026736 47.08990216255188 2.9064198955893517 -15.801799893379211 -20.854400396347046 -38.616200387477875 0.0 0.0 0.0 80.92759966850281 -57.81960189342499 75.32470107078552 5.849919989705086 80.16859889030457 -5.288049839437008 1.128250015899539 -2.3435700684785843 1.3312400132417679
0.07070000097155571 54.173301696777344 0.49435000121593475 -17.048100382089615 -23.13760131597519 11.386300474405289 15.227199643850327 5.955879986286163 7.724729776382446 -0.6999780144542456 -6.158720031380653 2.092390079051256 -1.8668199889361858 13.026999682188034 2.97714002430439 3.5676900297403336 -24.848400056362152 6.782090216875076 0.0 0.0 0.0 0.0 0.0 0.0 0.0 0.0 -3.197442310920451e-13 63.044700622558594 47.17550218105316 -8.734840303659439 -28.271700739860535 -38.61239969730377 81.4670991897583 -0.024585300707258284 5.027390085160732 0.707929003983736 -2.468425464030588e-10 2.852118541341042e-09 4.476419235288631e-10 -4.2462033889023587e-10 4.893365712632658e-09 7.705835969318287e-10 -2.468425464030588e-10 2.852118541341042e-09 4.476419235288631e-10 7.7309102565050125 5.474880114197731 0.41731400415301323 -2.468425464030588e-10 2.852118541341042e-09 4.476419235288631e-10 2.905540131032467 0.9651830233633518 0.102901995414868 -2.468425464030588e-10 2.852118541341042e-09 4.476419235288631e-10 10.27859978377819 0.7318009994924068 0.025912300043273717 -2.468425464030588e-10 2.852118541341042e-09 4.476419235288631e-10 2.221670038998127 -0.733487019315362 -0.2089200052432716 0.0 0.0 -3.197442310920451e-13 -57.67019748687744 29.15710061788559 -24.518898725509644 28.07269960641861 -40.01359909772873 -83.94499897956848 0.6963320123031735 -23.00400048494339 3.4207499027252197 4.54036808150704e-10 -1.0692247087717988e-09 -4.2525982735241996e-11 7.865708084864309e-10 -1.8417267710901797e-09 -6.554756737386924e-11 4.54036808150704e-10 -1.0692247087717988e-09 -4.2525982735241996e-11 -7.7309102565050125 5.474880114197731 -0.41731400415301323 4.54036808150704e-10 -1.0692247087717988e-09 -4.2525982735241996e-11 -2.905540131032467 0.9651830233633518 -0.102901995414868 4.54036808150704e-10 -1.0692247087717988e-09 -4.2525982735241996e-11 -10.27859978377819 0.7318009994924068 -0.025912300043273717 4.54036808150704e-10 -1.0692247087717988e-09 -4.2525982735241996e-11 -2.221670038998127 -0.733487019315362 0.2089200052432716 0.0 0.0 0.0 -2.1998299844563007 3.1695298478007317 -9.179620295763016 -0.12489200220443308 47.13780105113983 2.9131998494267464 -15.633000433444977 -20.44690042734146 -38.80919873714447 0.0 0.0 0.0 81.75190150737762 -57.63319909572601 76.65140211582184 6.291640251874924 80.75219929218292 -5.719460025429726 1.2730499915778637 -2.121069934219122 2.160500083118677
0.05000000074505806 54.06869888305664 0.8023100048303604 -17.09009975194931 -23.44209909439087 11.833699643611908 15.025800615549088 6.151270195841789 7.999440282583237 -0.7331069838255644 -6.330530270934105 2.168690040707588 -1.9657700322568417 12.980900555849075 3.0129699781537056 3.398750089108944 -25.517098903656006 6.853099688887596 0.0 0.0 0.0 0.0 0.0 0.0 0.0 0.0 -3.197442310920451e-13 59.662901759147644 47.26410090923309 -4.407009892165661 -28.282198905944824 -38.505800664424896 81.28660261631012 -0.054496300290338695 6.4766597002744675 0.9143910370767117 1.368505309073953e-10 -3.404636572668096e-09 -3.90087961932295e-11 2.391686848568497e-10 -5.878177944396157e-09 -7.066347507134196e-11 1.368505309073953e-10 -3.404636572668096e-09 -3.90087961932295e-11 7.7309102565050125 5.474880114197731 0.41731400415301323 1.368505309073953e-10 -3.404636572668096e-09 -3.90087961932295e-11 2.905540131032467 0.9651830233633518 0.102901995414868 1.368505309073953e-10 -3.404636572668096e-09 -3.90087961932295e-11 10.27859978377819 0.7318009994924068 0.025912300043273717 1.368505309073953e-10 -3.404636572668096e-09 -3.90087961932295e-11 2.221670038998127 -0.733487019315362 -0.2089200052432716 0.0 0.0 -3.197442310920451e-13 -57.58530020713806 28.309200704097748 -23.399500250816345 27.999799847602844 -40.415098965168 -84.66909885406494 0.7081750128418207 -23.18800002336502 3.4512999281287193 5.972822236799402e-10 -1.0513190318306442e-09 9.966427683139045e-10 1.014228701023967e-09 -1.744524524838198e-09 1.7339729652121605e-09 5.972822236799402e-10 -1.0513190318306442e-09 9.966427683139045e-10 -7.7309102565050125 5.474880114197731 -0.41731400415301323 5.972822236799402e-10 -1.0513190318306442e-09 9.966427683139045e-10 -2.905540131032467 0.9651830233633518 -0.102901995414868 5.972822236799402e-10 -1.0513190318306442e-09 9.966427683139045e-10 -10.27859978377819 0.7318009994924068 -0.025912300043273717 5.972822236799402e-10 -1.0513190318306442e-09 9.966427683139045e-10 -2.221670038998127 -0.733487019315362 0.2089200052432716 0.0 0.0 0.0 -2.435479983687401 3.0308998748660088 -8.980360329151154 -0.12044100207276642 46.93060040473938 2.908429875969887 -15.484199523925781 -20.20140051841736 -38.84519934654236 0.0 0.0 0.0 82.64920234680176 -57.463898062705994 78.33059906959534 6.726819947361946 81.26680254936218 -6.150389760732651 1.56468003988266 -1.895470004528761 3.787040077149868
